<?xml version="1.0" encoding="UTF-8"?>
<!DOCTYPE svg PUBLIC "-//W3C//DTD SVG 1.1//EN" "http://www.w3.org/Graphics/SVG/1.1/DTD/svg11.dtd">
<!-- Creator: CorelDRAW 2017 -->
<svg xmlns="http://www.w3.org/2000/svg" xml:space="preserve" width="8.467mm" height="14.825mm" version="1.1" style="shape-rendering:geometricPrecision; text-rendering:geometricPrecision; image-rendering:optimizeQuality; fill-rule:evenodd; clip-rule:evenodd"
viewBox="0 0 846.7 1482.5"
 xmlns:xlink="http://www.w3.org/1999/xlink">
 <defs>
  <style type="text/css">
   <![CDATA[
    .fil0 {fill:#4C87FF;fill-rule:nonzero}
   ]]>
  </style>
 </defs>
 <g id="Capa_x0020_1">
  <metadata id="CorelCorpID_0Corel-Layer"/>
  <path class="fil0" d="M814.93 664.06l-634.99 -635c-38.81,-38.8 -105.83,-38.8 -148.17,0.01 -42.33,42.33 -42.33,109.36 0,151.69l557.38 560.92 -557.38 557.37c-42.33,42.34 -42.33,109.37 0,151.7 21.17,21.17 45.86,31.75 74.09,31.75 28.22,0 52.91,-10.58 74.08,-31.75l634.99 -635c3.53,-3.53 10.58,-10.58 14.11,-17.64 10.58,-17.64 17.64,-38.8 17.64,-59.96 0,-24.7 -10.58,-52.92 -31.75,-74.09z"/>
 </g>
</svg>
