<?xml version="1.0" encoding="UTF-8"?>
<!DOCTYPE svg PUBLIC "-//W3C//DTD SVG 1.1//EN" "http://www.w3.org/Graphics/SVG/1.1/DTD/svg11.dtd">
<!-- Creator: CorelDRAW 2017 -->
<svg xmlns="http://www.w3.org/2000/svg" xml:space="preserve" width="15.257mm" height="8.863mm" version="1.1" style="shape-rendering:geometricPrecision; text-rendering:geometricPrecision; image-rendering:optimizeQuality; fill-rule:evenodd; clip-rule:evenodd"
viewBox="0 0 1525.7 886.3"
 xmlns:xlink="http://www.w3.org/1999/xlink">
 <defs>
  <style type="text/css">
   <![CDATA[
    .fil0 {fill:white;fill-rule:nonzero}
   ]]>
  </style>
 </defs>
 <g id="Слой_x0020_1">
  <metadata id="CorelCorpID_0Corel-Layer"/>
  <g id="_2907889653808">
   <path class="fil0" d="M36.16 675.54c-48.21,48.21 -48.21,126.39 0,174.6 48.21,48.21 126.39,48.21 174.6,0l639.4 -639.4c48.21,-48.21 48.21,-126.39 0,-174.6 -48.21,-48.21 -126.39,-48.21 -174.6,0l-639.4 639.4z"/>
   <path class="fil0" d="M1314.97 850.14c48.21,48.21 126.39,48.21 174.6,0 48.21,-48.21 48.21,-126.39 0,-174.6l-639.41 -639.4c-48.21,-48.21 -126.39,-48.21 -174.6,0 -48.21,48.21 -48.21,126.39 0,174.6l639.41 639.4z"/>
  </g>
 </g>
</svg>
