<?xml version="1.0" encoding="UTF-8"?>
<!DOCTYPE svg PUBLIC "-//W3C//DTD SVG 1.1//EN" "http://www.w3.org/Graphics/SVG/1.1/DTD/svg11.dtd">
<!-- Creator: CorelDRAW 2017 -->
<svg xmlns="http://www.w3.org/2000/svg" xml:space="preserve" width="131.656mm" height="137.667mm" version="1.1" style="shape-rendering:geometricPrecision; text-rendering:geometricPrecision; image-rendering:optimizeQuality; fill-rule:evenodd; clip-rule:evenodd"
viewBox="0 0 13165.6 13766.7"
 xmlns:xlink="http://www.w3.org/1999/xlink">
 <defs>
  <style type="text/css">
   <![CDATA[
    .fil0 {fill:#149002;fill-rule:nonzero}
   ]]>
  </style>
 </defs>
 <g id="Слой_x0020_1">
  <metadata id="CorelCorpID_0Corel-Layer"/>
  <g id="_2907879251456">
   <g>
    <path class="fil0" d="M12310.55 6962.35c-25.51,-50.69 -25.51,-110.1 0,-158.03l778.86 -1523.96c84.74,-163.73 98.81,-349.89 42.3,-524.9 -56.34,-175.02 -177.77,-316.13 -341.46,-400.76l-1526.75 -773.32c-50.83,-25.37 -84.73,-73.34 -93.13,-129.83l-265.29 -1690.43c-53.59,-335.99 -338.7,-578.63 -677.3,-578.63 -36.79,0 -73.45,2.89 -107.35,8.54l-1690.44 268c-53.62,8.57 -112.85,-11.29 -152.4,-47.94l-1208.02 -1210.73c-129.78,-129.83 -301.9,-200.38 -485.31,-200.38 -183.44,0 -355.66,70.55 -485.48,200.38l-1210.74 1210.73c-33.76,33.9 -76.23,50.83 -124.18,50.83 -8.39,0 -19.72,0 -28.25,-2.89l-1690.44 -268c-36.66,-5.65 -73.45,-8.54 -107.21,-8.54 -338.7,0 -623.68,242.64 -677.44,578.63l-265.26 1690.43c-8.43,56.49 -42.33,104.46 -93.02,129.83l-1526.86 776.11c-163.72,81.84 -285.12,225.85 -341.49,400.72 -56.51,175.01 -42.3,361.31 42.3,525.04l778.86 1523.96c25.51,50.69 25.51,109.95 0,158.04l-778.86 1524c-84.6,163.69 -98.81,349.88 -42.3,524.9 56.37,174.97 177.77,316.08 341.49,400.72l1523.96 770.46c50.84,25.47 84.6,73.45 93.14,129.79l265.29 1690.58c53.62,335.84 338.73,578.52 677.29,578.52 36.66,0 73.45,-2.75 107.21,-8.43l1690.59 -268.15c53.62,-8.39 112.85,11.29 152.4,47.95l1207.87 1210.76c129.79,129.79 302.05,200.35 485.46,200.35 183.43,0 355.55,-70.56 485.34,-200.35l1207.98 -1210.76c39.58,-39.41 95.92,-59.24 152.44,-47.95l1690.44 268.15c36.79,5.68 73.45,8.43 110.1,8.43 338.7,0 623.71,-242.68 677.3,-578.52l265.29 -1690.58c8.53,-56.34 42.44,-104.32 93.13,-129.79l1526.86 -776.11c163.72,-81.88 285.01,-225.74 341.49,-400.75 56.51,-175.02 42.3,-361.18 -42.3,-524.9l-776.11 -1521.22zm332.91 1890.96l0 0c-14.04,45.05 -45.05,81.85 -87.34,101.57l-1526.86 776.11c-194.74,98.81 -333.09,287.87 -367,505.18l-265.25 1690.44c-14.07,93.17 -104.32,160.97 -200.38,144l-1690.44 -268.14c-36.79,-5.69 -70.55,-8.44 -107.35,-8.44 -183.41,0 -355.53,70.56 -485.35,200.38l-1207.98 1210.74c-64.91,64.91 -180.51,64.91 -248.31,0l-1207.84 -1210.74c-127.07,-127.07 -304.84,-200.38 -485.5,-200.38 -36.65,0 -73.3,2.75 -107.2,8.44l-1690.59 268.14c-95.92,14.08 -186.16,-50.83 -200.37,-146.75l-265.26 -1690.59c-33.76,-217.17 -172.12,-406.36 -366.85,-505.03l-1526.86 -776.11c-42.3,-19.86 -73.31,-56.52 -87.49,-101.71 -14.07,-45.05 -11.32,-93.17 11.29,-132.57l779 -1523.97c98.82,-194.87 98.82,-428.97 0,-623.84l-779 -1523.96c-22.61,-42.3 -25.36,-90.28 -11.29,-132.58 14.18,-45.19 45.19,-81.84 87.49,-101.7l1526.86 -776.12c194.73,-98.63 333.09,-287.86 366.85,-505.17l265.26 -1690.44c14.21,-93.14 104.45,-160.8 200.37,-144.01l1690.59 268.18c36.65,5.65 73.3,8.54 107.2,8.54 180.66,0 358.43,-73.45 485.5,-200.52l1207.84 -1210.59c64.91,-65.05 180.65,-65.05 248.31,0l1207.98 1210.59c152.44,152.44 378.14,225.89 592.7,191.98l1690.44 -268.18c96.06,-14.04 186.31,50.87 200.38,144.01l265.25 1690.44c33.91,217.31 172.26,406.54 367,505.17l1526.86 776.12c42.29,19.86 73.3,56.51 87.34,101.7 14.22,45.09 11.33,93.17 -11.29,132.58l-778.86 1523.96c-98.81,194.87 -98.81,428.97 0,623.84l778.86 1523.97c22.62,42.3 25.51,90.27 11.29,135.46z"/>
   </g>
   <path class="fil0" d="M8791.17 5218.34l-1270 0 0 -889.11c0,-448.7 -135.47,-776.11 -400.72,-970.84 -412.05,-301.91 -951.12,-146.76 -1013.14,-126.9 -107.35,33.76 -177.9,132.54 -177.9,242.64l0 1106.31c0,770.47 -880.43,1055.59 -976.49,1083.7 -87.35,-93.03 -211.67,-152.43 -347.1,-152.43l-903.04 0c-262.5,0 -476.96,214.56 -476.96,477.09l0 2864.51c0,262.37 214.46,476.92 476.96,476.92l903.04 0c107.35,0 203.24,-36.65 285.12,-93.13 175.01,160.8 406.36,259.61 663.22,259.61l2709.22 0c643.53,0 1072.55,-352.78 1145.85,-945.48l364.07 -2314.11c2.89,-14.21 2.89,-25.5 2.89,-39.54 -2.89,-539.12 -443.16,-979.24 -985.02,-979.24zm-4222 3603.82l0 0 -835.38 0 0 -2796.7 835.38 0 0 2796.7zm4332.1 -344.24l0 0 0 8.43c-14.04,124.15 -62.13,499.54 -637.89,499.54l-2709.22 0c-259.75,0 -468.53,-211.67 -468.53,-468.42l0 -2356.55 2.76 0c56.51,-14.21 1357.52,-392.32 1357.52,-1580.48l0 -891.85c115.75,-8.44 265.24,0 378.24,81.84 126.93,93.17 191.84,282.22 191.84,558.8l0 1145.82c0,141.11 115.74,256.86 256.86,256.86l1526.85 0c254,0 459.99,200.38 468.42,451.59l-366.85 2294.42z"/>
  </g>
 </g>
</svg>
