<?xml version="1.0" encoding="UTF-8"?>
<!DOCTYPE svg PUBLIC "-//W3C//DTD SVG 1.1//EN" "http://www.w3.org/Graphics/SVG/1.1/DTD/svg11.dtd">
<!-- Creator: CorelDRAW 2017 -->
<svg xmlns="http://www.w3.org/2000/svg" xml:space="preserve" width="30.786mm" height="58.6mm" version="1.1" style="shape-rendering:geometricPrecision; text-rendering:geometricPrecision; image-rendering:optimizeQuality; fill-rule:evenodd; clip-rule:evenodd"
viewBox="0 0 3078.6 5860"
 xmlns:xlink="http://www.w3.org/1999/xlink">
 <defs>
  <style type="text/css">
   <![CDATA[
    .fil0 {fill:#E1AD3D;fill-rule:nonzero}
   ]]>
  </style>
 </defs>
 <g id="Isolation_x0020_Mode">
  <metadata id="CorelCorpID_0Corel-Layer"/>
  <g id="_2137341878960">
   <g>
    <g>
     <g>
      <g>
       <path class="fil0" d="M2149.19 692.37c-94.3,-43.97 -159.8,-124.57 -187.59,-216.95 88.63,-38.09 192.47,-39.73 286.78,4.25 94.31,43.97 159.81,124.57 187.59,216.95 -88.62,38.1 -192.47,39.73 -286.78,-4.25z"/>
       <path class="fil0" d="M2178.17 286.76c-43.98,94.31 -124.58,159.81 -216.96,187.59 -38.1,-88.63 -39.73,-192.48 4.25,-286.78 43.97,-94.3 124.57,-159.81 216.95,-187.59 38.1,88.63 39.73,192.47 -4.24,286.78z"/>
      </g>
      <g>
       <path class="fil0" d="M1775.59 882.14c-100.51,-26.93 -179.01,-94.94 -222.41,-181.09 80.66,-52.91 182.64,-72.55 283.15,-45.62 100.52,26.94 179.02,94.94 222.42,181.09 -80.67,52.91 -182.65,72.55 -283.16,45.62z"/>
       <path class="fil0" d="M1733.69 477.65c-26.94,100.51 -94.93,179.01 -181.09,222.41 -52.9,-80.66 -72.55,-182.65 -45.61,-283.16 26.93,-100.51 94.93,-179.01 181.08,-222.41 52.91,80.66 72.55,182.65 45.62,283.16z"/>
      </g>
      <g>
       <path class="fil0" d="M1440.38 1134.39c-103.66,-9.07 -192.78,-62.41 -250.48,-139.71 70.25,-66.11 167.27,-103.16 270.93,-94.1 103.67,9.07 192.78,62.41 250.49,139.71 -70.26,66.12 -167.28,103.17 -270.94,94.1z"/>
       <path class="fil0" d="M1328.88 743.32c-9.07,103.66 -62.41,192.78 -139.72,250.48 -66.11,-70.25 -103.16,-167.27 -94.09,-270.93 9.07,-103.66 62.41,-192.78 139.71,-250.48 66.11,70.25 103.16,167.27 94.1,270.93z"/>
      </g>
      <g>
       <path class="fil0" d="M1153.74 1441.48c-103.66,9.07 -200.68,-27.98 -270.93,-94.09 57.7,-77.31 146.82,-130.64 250.48,-139.71 103.66,-9.07 200.68,27.98 270.93,94.09 -57.7,77.31 -146.82,130.64 -250.48,139.71z"/>
       <path class="fil0" d="M976.02 1075.72c9.07,103.66 -27.97,200.68 -94.09,270.93 -77.31,-57.7 -130.64,-146.82 -139.7,-250.48 -9.07,-103.66 27.97,-200.68 94.09,-270.93 77.31,57.7 130.64,146.82 139.7,250.48z"/>
      </g>
      <g>
       <path class="fil0" d="M924.4 1794.07c-100.52,26.94 -202.5,7.3 -283.16,-45.61 43.4,-86.16 121.9,-154.15 222.41,-181.08 100.51,-26.94 202.49,-7.3 283.16,45.61 -43.4,86.16 -121.9,154.15 -222.41,181.08z"/>
       <path class="fil0" d="M685.86 1464.73c26.94,100.51 7.29,202.49 -45.62,283.16 -86.14,-43.4 -154.15,-121.9 -181.08,-222.42 -26.93,-100.51 -7.29,-202.49 45.62,-283.15 86.15,43.4 154.15,121.9 181.08,222.41z"/>
      </g>
      <g>
       <path class="fil0" d="M759.3 2181.46c-94.31,43.97 -198.15,42.34 -286.78,4.24 27.79,-92.37 93.29,-172.98 187.59,-216.95 94.31,-43.98 198.16,-42.35 286.78,-4.25 -27.78,92.38 -93.28,172.98 -187.59,216.96z"/>
       <path class="fil0" d="M467.2 1898.53c43.98,94.31 42.35,198.15 4.25,286.78 -92.38,-27.78 -172.98,-93.28 -216.95,-187.59 -43.98,-94.31 -42.35,-198.15 -4.25,-286.77 92.38,27.78 172.98,93.28 216.95,187.58z"/>
      </g>
      <g>
       <path class="fil0" d="M663.48 2591.86c-85.24,59.68 -187.79,76.1 -281.68,53.97 11.32,-95.8 61.82,-186.55 147.06,-246.23 85.24,-59.68 187.79,-76.11 281.68,-53.98 -11.31,95.8 -61.82,186.55 -147.06,246.24z"/>
       <path class="fil0" d="M326.69 2363.95c59.68,85.24 76.11,187.79 53.98,281.68 -95.8,-11.31 -186.55,-61.82 -246.23,-147.06 -59.69,-85.24 -76.11,-187.79 -53.98,-281.68 95.8,11.32 186.55,61.82 246.23,147.06z"/>
      </g>
      <g>
       <path class="fil0" d="M639.86 3012.79c-73.59,73.58 -171.72,107.56 -268.03,102.07 -5.49,-96.31 28.49,-194.45 102.07,-268.03 73.58,-73.58 171.72,-107.56 268.03,-102.07 5.48,96.31 -28.5,194.45 -102.07,268.03z"/>
       <path class="fil0" d="M268.61 2846.83c73.58,73.58 107.56,171.72 102.07,268.03 -96.31,5.49 -194.45,-28.49 -268.03,-102.07 -73.58,-73.58 -107.56,-171.72 -102.07,-268.03 96.31,-5.49 194.45,28.49 268.03,102.07z"/>
      </g>
      <g>
       <path class="fil0" d="M689.41 3428.31c-59.68,85.24 -150.43,135.75 -246.23,147.07 -22.13,-93.9 -5.71,-196.45 53.98,-281.69 59.68,-85.23 150.43,-135.74 246.23,-147.06 22.13,93.89 5.7,196.45 -53.98,281.68z"/>
       <path class="fil0" d="M294.99 3329.34c85.23,59.69 135.74,150.44 147.06,246.24 -93.89,22.13 -196.44,5.7 -281.68,-53.98 -85.24,-59.69 -135.75,-150.44 -147.07,-246.24 93.9,-22.13 196.45,-5.7 281.69,53.98z"/>
      </g>
      <g>
       <path class="fil0" d="M810.91 3828.96c-43.98,94.3 -124.58,159.8 -216.96,187.59 -38.1,-88.63 -39.73,-192.48 4.25,-286.78 43.98,-94.31 124.57,-159.81 216.95,-187.59 38.1,88.62 39.73,192.47 -4.24,286.78z"/>
       <path class="fil0" d="M405.29 3799.98c94.31,43.98 159.81,124.58 187.59,216.96 -88.62,38.1 -192.47,39.73 -286.78,-4.25 -94.31,-43.98 -159.8,-124.57 -187.59,-216.95 88.63,-38.1 192.47,-39.73 286.78,4.24z"/>
      </g>
      <g>
       <path class="fil0" d="M1000.67 4202.56c-26.93,100.51 -94.94,179.01 -181.09,222.41 -52.91,-80.66 -72.55,-182.64 -45.62,-283.15 26.94,-100.52 94.94,-179.02 181.09,-222.41 52.91,80.65 72.55,182.64 45.62,283.15z"/>
       <path class="fil0" d="M596.18 4244.46c100.51,26.94 179.01,94.93 222.41,181.09 -80.66,52.91 -182.65,72.54 -283.15,45.61 -100.52,-26.93 -179.02,-94.93 -222.42,-181.08 80.66,-52.91 182.65,-72.55 283.16,-45.62z"/>
      </g>
      <g>
       <path class="fil0" d="M1252.92 4537.77c-9.07,103.66 -62.4,192.78 -139.71,250.48 -66.11,-70.25 -103.16,-167.27 -94.09,-270.93 9.07,-103.67 62.4,-192.78 139.71,-250.49 66.11,70.26 103.16,167.28 94.09,270.94z"/>
       <path class="fil0" d="M861.86 4649.27c103.66,9.07 192.77,62.41 250.47,139.71 -70.24,66.12 -167.27,103.17 -270.93,94.1 -103.66,-9.07 -192.78,-62.41 -250.48,-139.71 70.25,-66.12 167.28,-103.17 270.94,-94.1z"/>
      </g>
      <g>
       <path class="fil0" d="M1560.01 4824.4c9.07,103.66 -27.98,200.69 -94.09,270.94 -77.31,-57.7 -130.64,-146.82 -139.71,-250.48 -9.07,-103.66 27.98,-200.69 94.09,-270.94 77.31,57.71 130.64,146.82 139.71,250.48z"/>
       <path class="fil0" d="M1194.25 5002.12c103.66,-9.07 200.68,27.98 270.93,94.1 -57.7,77.3 -146.81,130.64 -250.48,139.71 -103.66,9.07 -200.68,-27.98 -270.93,-94.1 57.7,-77.3 146.82,-130.64 250.48,-139.71z"/>
      </g>
      <g>
       <path class="fil0" d="M1912.61 5053.75c26.93,100.52 7.29,202.5 -45.62,283.16 -86.16,-43.4 -154.15,-121.9 -181.08,-222.41 -26.94,-100.51 -7.3,-202.49 45.61,-283.16 86.15,43.4 154.15,121.91 181.09,222.41z"/>
       <path class="fil0" d="M1583.26 5292.29c100.51,-26.94 202.5,-7.3 283.15,45.61 -43.4,86.16 -121.9,154.15 -222.4,181.09 -100.52,26.93 -202.5,7.29 -283.16,-45.62 43.4,-86.15 121.9,-154.15 222.41,-181.08z"/>
      </g>
      <g>
       <path class="fil0" d="M2299.99 5218.85c43.97,94.31 42.34,198.15 4.24,286.77 -92.38,-27.78 -172.97,-93.27 -216.95,-187.58 -43.98,-94.31 -42.35,-198.16 -4.25,-286.78 92.38,27.78 172.98,93.28 216.96,187.59z"/>
       <path class="fil0" d="M2017.06 5510.95c94.31,-43.98 198.16,-42.35 286.78,-4.25 -27.78,92.38 -93.28,172.98 -187.59,216.96 -94.31,43.97 -198.15,42.34 -286.77,4.24 27.78,-92.38 93.28,-172.98 187.58,-216.95z"/>
      </g>
     </g>
     <path class="fil0" d="M2642.62 347.44c-97.78,35.59 -201.09,24.91 -286.05,-20.77 35.72,-89.61 108,-164.19 205.78,-199.78 97.78,-35.59 201.09,-24.91 286.05,20.76 -35.72,89.61 -108,164.2 -205.78,199.79z"/>
    </g>
    <path class="fil0" d="M3078.62 5807.35c-295.9,-158.54 -576.02,-249.92 -768.79,-315.26 -31.53,-10.71 -60.78,-20.62 -87.46,-29.96 -1100.72,-385.26 -1840.28,-1403.68 -1840.28,-2534.23 0,-1272.31 935.55,-2382.24 2224.56,-2639.21l-8.3 -41.65c-1308.8,260.9 -2258.74,1388.36 -2258.74,2680.86 0,1148.58 751,2183.12 1868.74,2574.35 26.76,9.36 56.17,19.32 87.83,30.06 197.18,66.84 436.15,161.25 698.86,327.7 28.88,-16.28 56.54,-34.1 83.58,-52.66z"/>
   </g>
  </g>
 </g>
</svg>
