<?xml version="1.0" encoding="UTF-8"?>
<!DOCTYPE svg PUBLIC "-//W3C//DTD SVG 1.1//EN" "http://www.w3.org/Graphics/SVG/1.1/DTD/svg11.dtd">
<!-- Creator: CorelDRAW 2017 -->
<svg xmlns="http://www.w3.org/2000/svg" xml:space="preserve" width="16.368mm" height="16.087mm" version="1.1" style="shape-rendering:geometricPrecision; text-rendering:geometricPrecision; image-rendering:optimizeQuality; fill-rule:evenodd; clip-rule:evenodd"
viewBox="0 0 1636.8 1608.7"
 xmlns:xlink="http://www.w3.org/1999/xlink">
 <defs>
  <style type="text/css">
   <![CDATA[
    .fil0 {fill:black;fill-rule:nonzero}
   ]]>
  </style>
 </defs>
 <g id="__x0023_Layer_x0020_1">
  <metadata id="CorelCorpID_0Corel-Layer"/>
  <g id="_2137475186912">
   <path class="fil0" d="M1210.72 112.86c-13.23,-64.35 -70.13,-112.86 -138.36,-112.86 -15.56,0 -28.08,12.67 -28.08,28.26 0,15.56 12.52,28.26 28.08,28.26 46.74,0 84.77,37.89 84.77,84.6 0,46.7 -38.03,84.59 -84.77,84.59 -15.56,0 -28.08,12.7 -28.08,28.26 0,15.59 12.52,28.26 28.08,28.26 68.23,0 125.13,-48.51 138.36,-112.86l369.75 0 0 253.96 -1523.96 0 0 -253.96 479.67 0c15.6,0 28.26,-12.7 28.26,-28.25 0,-15.56 -12.66,-28.26 -28.26,-28.26l-51.25 0c11.71,-32.77 42.72,-56.34 79.51,-56.34 46.71,0 84.6,37.89 84.6,84.6 0,46.7 -37.89,84.59 -84.6,84.59 -15.56,0 -28.26,12.7 -28.26,28.26 0,15.59 12.7,28.26 28.26,28.26 77.86,0 141.11,-63.26 141.11,-141.11 0,-77.86 -63.25,-141.12 -141.11,-141.12 -68.09,0 -125.13,48.51 -138.22,112.86l-426.22 0 0 1495.84 1636.8 0 0 -1495.84 -426.08 0zm369.75 1439.33l0 0 -1523.96 0 0 -1072.35 1523.96 0 0 1072.35z"/>
   <path class="fil0" d="M733.81 56.52c46.71,0 84.6,37.89 84.6,84.6 0,46.7 -37.89,84.59 -84.6,84.59 -15.59,0 -28.26,12.7 -28.26,28.26 0,15.59 12.67,28.26 28.26,28.26 77.72,0 141.1,-63.26 141.1,-141.11 0,-77.86 -63.38,-141.12 -141.1,-141.12 -15.59,0 -28.26,12.67 -28.26,28.26 0,15.56 12.67,28.26 28.26,28.26z"/>
   <path class="fil0" d="M903.17 56.52c46.57,0 84.59,37.89 84.59,84.6 0,46.7 -38.02,84.59 -84.59,84.59 -15.74,0 -28.26,12.7 -28.26,28.26 0,15.59 12.52,28.26 28.26,28.26 77.72,0 141.11,-63.26 141.11,-141.11 0,-77.86 -63.39,-141.12 -141.11,-141.12 -15.74,0 -28.26,12.67 -28.26,28.26 0,15.56 12.52,28.26 28.26,28.26z"/>
   <path class="fil0" d="M649.04 677.29c0,15.6 -12.53,28.26 -28.08,28.26 -15.74,0 -28.26,-12.66 -28.26,-28.26 0,-15.55 12.52,-28.26 28.26,-28.26 15.55,0 28.08,12.71 28.08,28.26z"/>
   <path class="fil0" d="M846.65 677.29c0,15.6 -12.66,28.26 -28.24,28.26 -15.56,0 -28.26,-12.66 -28.26,-28.26 0,-15.55 12.7,-28.26 28.26,-28.26 15.58,0 28.24,12.71 28.24,28.26z"/>
   <path class="fil0" d="M1044.28 677.29c0,15.6 -12.7,28.26 -28.26,28.26 -15.59,0 -28.26,-12.66 -28.26,-28.26 0,-15.55 12.67,-28.26 28.26,-28.26 15.56,0 28.26,12.71 28.26,28.26z"/>
   <path class="fil0" d="M1241.73 677.29c0,15.6 -12.52,28.26 -28.26,28.26 -15.56,0 -28.08,-12.66 -28.08,-28.26 0,-15.55 12.52,-28.26 28.08,-28.26 15.74,0 28.26,12.71 28.26,28.26z"/>
   <path class="fil0" d="M1439.36 677.29c0,15.6 -12.7,28.26 -28.26,28.26 -15.56,0 -28.26,-12.66 -28.26,-28.26 0,-15.55 12.7,-28.26 28.26,-28.26 15.56,0 28.26,12.71 28.26,28.26z"/>
   <path class="fil0" d="M253.96 903.16c0,15.55 -12.52,28.08 -28.26,28.08 -15.55,0 -28.08,-12.53 -28.08,-28.08 0,-15.74 12.53,-28.26 28.08,-28.26 15.74,0 28.26,12.52 28.26,28.26z"/>
   <path class="fil0" d="M451.59 903.16c0,15.55 -12.7,28.08 -28.26,28.08 -15.56,0 -28.26,-12.53 -28.26,-28.08 0,-15.74 12.7,-28.26 28.26,-28.26 15.56,0 28.26,12.52 28.26,28.26z"/>
   <path class="fil0" d="M649.04 903.16c0,15.55 -12.53,28.08 -28.08,28.08 -15.74,0 -28.26,-12.53 -28.26,-28.08 0,-15.74 12.52,-28.26 28.26,-28.26 15.55,0 28.08,12.52 28.08,28.26z"/>
   <path class="fil0" d="M846.65 903.16c0,15.55 -12.66,28.08 -28.24,28.08 -15.56,0 -28.26,-12.53 -28.26,-28.08 0,-15.74 12.7,-28.26 28.26,-28.26 15.58,0 28.24,12.52 28.24,28.26z"/>
   <path class="fil0" d="M1044.28 903.16c0,15.55 -12.7,28.08 -28.26,28.08 -15.59,0 -28.26,-12.53 -28.26,-28.08 0,-15.74 12.67,-28.26 28.26,-28.26 15.56,0 28.26,12.52 28.26,28.26z"/>
   <path class="fil0" d="M1241.73 903.16c0,15.55 -12.52,28.08 -28.26,28.08 -15.56,0 -28.08,-12.53 -28.08,-28.08 0,-15.74 12.52,-28.26 28.08,-28.26 15.74,0 28.26,12.52 28.26,28.26z"/>
   <path class="fil0" d="M1439.36 903.16c0,15.55 -12.7,28.08 -28.26,28.08 -15.56,0 -28.26,-12.53 -28.26,-28.08 0,-15.74 12.7,-28.26 28.26,-28.26 15.56,0 28.26,12.52 28.26,28.26z"/>
   <path class="fil0" d="M253.96 1100.61c0,15.59 -12.52,28.25 -28.26,28.25 -15.55,0 -28.08,-12.66 -28.08,-28.25 0,-15.56 12.53,-28.26 28.08,-28.26 15.74,0 28.26,12.7 28.26,28.26z"/>
   <path class="fil0" d="M451.59 1100.61c0,15.59 -12.7,28.25 -28.26,28.25 -15.56,0 -28.26,-12.66 -28.26,-28.25 0,-15.56 12.7,-28.26 28.26,-28.26 15.56,0 28.26,12.7 28.26,28.26z"/>
   <path class="fil0" d="M649.04 1100.61c0,15.59 -12.53,28.25 -28.08,28.25 -15.74,0 -28.26,-12.66 -28.26,-28.25 0,-15.56 12.52,-28.26 28.26,-28.26 15.55,0 28.08,12.7 28.08,28.26z"/>
   <path class="fil0" d="M846.65 1100.61c0,15.59 -12.66,28.25 -28.24,28.25 -15.56,0 -28.26,-12.66 -28.26,-28.25 0,-15.56 12.7,-28.26 28.26,-28.26 15.58,0 28.24,12.7 28.24,28.26z"/>
   <path class="fil0" d="M1044.28 1100.61c0,15.59 -12.7,28.25 -28.26,28.25 -15.59,0 -28.26,-12.66 -28.26,-28.25 0,-15.56 12.67,-28.26 28.26,-28.26 15.56,0 28.26,12.7 28.26,28.26z"/>
   <path class="fil0" d="M1241.73 1100.61c0,15.59 -12.52,28.25 -28.26,28.25 -15.56,0 -28.08,-12.66 -28.08,-28.25 0,-15.56 12.52,-28.26 28.08,-28.26 15.74,0 28.26,12.7 28.26,28.26z"/>
   <path class="fil0" d="M1439.36 1100.61c0,15.59 -12.7,28.25 -28.26,28.25 -15.56,0 -28.26,-12.66 -28.26,-28.25 0,-15.56 12.7,-28.26 28.26,-28.26 15.56,0 28.26,12.7 28.26,28.26z"/>
   <path class="fil0" d="M253.96 1326.49c0,15.56 -12.52,28.08 -28.26,28.08 -15.55,0 -28.08,-12.52 -28.08,-28.08 0,-15.73 12.53,-28.26 28.08,-28.26 15.74,0 28.26,12.53 28.26,28.26z"/>
   <path class="fil0" d="M451.59 1326.49c0,15.56 -12.7,28.08 -28.26,28.08 -15.56,0 -28.26,-12.52 -28.26,-28.08 0,-15.73 12.7,-28.26 28.26,-28.26 15.56,0 28.26,12.53 28.26,28.26z"/>
   <path class="fil0" d="M649.04 1326.49c0,15.56 -12.53,28.08 -28.08,28.08 -15.74,0 -28.26,-12.52 -28.26,-28.08 0,-15.73 12.52,-28.26 28.26,-28.26 15.55,0 28.08,12.53 28.08,28.26z"/>
   <path class="fil0" d="M846.65 1326.49c0,15.56 -12.66,28.08 -28.24,28.08 -15.56,0 -28.26,-12.52 -28.26,-28.08 0,-15.73 12.7,-28.26 28.26,-28.26 15.58,0 28.24,12.53 28.24,28.26z"/>
   <path class="fil0" d="M1044.28 1326.49c0,15.56 -12.7,28.08 -28.26,28.08 -15.59,0 -28.26,-12.52 -28.26,-28.08 0,-15.73 12.67,-28.26 28.26,-28.26 15.56,0 28.26,12.53 28.26,28.26z"/>
  </g>
 </g>
</svg>
