<?xml version="1.0" encoding="UTF-8"?>
<!DOCTYPE svg PUBLIC "-//W3C//DTD SVG 1.1//EN" "http://www.w3.org/Graphics/SVG/1.1/DTD/svg11.dtd">
<!-- Creator: CorelDRAW 2017 -->
<svg xmlns="http://www.w3.org/2000/svg" xml:space="preserve" width="125.589mm" height="166.511mm" version="1.1" style="shape-rendering:geometricPrecision; text-rendering:geometricPrecision; image-rendering:optimizeQuality; fill-rule:evenodd; clip-rule:evenodd"
viewBox="0 0 12558.9 16651.1"
 xmlns:xlink="http://www.w3.org/1999/xlink">
 <defs>
  <style type="text/css">
   <![CDATA[
    .fil0 {fill:black;fill-rule:nonzero}
   ]]>
  </style>
 </defs>
 <g id="РЎР_x00bb_РѕР_x2116__x0020_1">
  <metadata id="CorelCorpID_0Corel-Layer"/>
  <g id="_2137341507616">
   <path class="fil0" d="M12558.88 282.22c0,-155.86 -126.36,-282.22 -282.22,-282.22l-11994.44 0c-155.85,0 -282.22,126.36 -282.22,282.22l0 16086.66c0,155.85 126.37,282.22 282.22,282.22l11994.44 0c155.86,0 282.22,-126.37 282.22,-282.22l0 -16086.66zm-564.44 7761.11l0 0 -1058.34 0 0 -7478.89 1058.34 0 0 7478.89zm-1622.78 -3492.5l0 0 -8184.44 0 0 -3986.39 8184.44 0 0 3986.39zm-8184.44 564.45l0 0 3774.73 0 0 2928.05 -3774.73 0 0 -2928.05zm3774.73 3492.49l0 0 0 2928.05 -3774.73 0 0 -2928.05 3774.73 0zm-3774.73 3492.5l0 0 3953.87 0c31.96,35.27 66.71,19.72 103.08,19.72 36.37,0 71.11,15.55 103.07,-19.72l4024.42 0 0 3986.39 -8184.44 0 0 -3986.39zm8184.44 -564.45l0 0 -3845.28 0 0 -2928.05 3845.28 0 0 2928.05zm-3845.28 -3492.49l0 0 0 -2928.05 3845.28 0 0 2928.05 -3845.28 0zm-4903.6 -7478.89l0 0 0 7478.89 -1058.33 0 0 -7478.89 1058.33 0zm-1058.33 8043.33l0 0 1058.33 0 0 7478.89 -1058.33 0 0 -7478.89zm10371.65 7478.89l0 0 0 -7478.89 1058.34 0 0 7478.89 -1058.34 0z"/>
  </g>
 </g>
</svg>
