<?xml version="1.0" encoding="UTF-8"?>
<!DOCTYPE svg PUBLIC "-//W3C//DTD SVG 1.1//EN" "http://www.w3.org/Graphics/SVG/1.1/DTD/svg11.dtd">
<!-- Creator: CorelDRAW 2017 -->
<svg xmlns="http://www.w3.org/2000/svg" xml:space="preserve" width="107.798mm" height="138.638mm" version="1.1" style="shape-rendering:geometricPrecision; text-rendering:geometricPrecision; image-rendering:optimizeQuality; fill-rule:evenodd; clip-rule:evenodd"
viewBox="0 0 10779.8 13863.8"
 xmlns:xlink="http://www.w3.org/1999/xlink">
 <defs>
  <style type="text/css">
   <![CDATA[
    .fil0 {fill:black;fill-rule:nonzero}
   ]]>
  </style>
 </defs>
 <g id="__x0023_Layer_x0020_1">
  <metadata id="CorelCorpID_0Corel-Layer"/>
  <g id="_2137341543920">
   <g>
    <path class="fil0" d="M35.4 7417.33c-84.73,-733.8 -14.18,-1442.11 177.77,-2096.94 637.75,-2175.93 2638.81,-3776.1 5012.19,-3804.35l0 -1422.3c0,-79.09 98.82,-121.39 163.72,-73.45l2926.68 2150.57c47.94,36.66 47.94,110.1 0,143.9l-2923.79 2150.53c-67.79,47.98 -163.71,5.68 -163.71,-73.3l0 -1419.65c-1560.76,25.36 -2892.78,987.78 -3465.76,2348.05 -217.31,513.72 -327.28,1080.91 -296.3,1676.5 42.33,818.41 349.88,1571.94 835.38,2181.58 259.64,324.52 197.62,798.58 -138.36,1044.15 -318.88,234.24 -764.79,169.33 -1010.22,-141.11 -601.24,-750.64 -1001.99,-1665.11 -1117.6,-2664.18zm8449.69 -2731.94l0 0c488.24,606.89 795.83,1363.14 835.38,2181.69 31.01,598.23 -81.85,1165.56 -296.41,1676.39 -572.87,1360.27 -1905,2325.44 -3465.65,2348.05l0 -1419.54c0,-79.1 -98.78,-121.39 -163.69,-73.45l-2926.67 2150.57c-47.94,36.65 -47.94,110.1 0,143.86l2923.92 2150.57c67.66,47.98 163.55,5.64 163.55,-73.31l0 -1422.4c2373.56,-25.5 4377.34,-1625.67 5012.34,-3804.35 191.98,-654.83 259.64,-1363.17 177.8,-2096.94 -112.89,-999.1 -513.61,-1913.43 -1114.71,-2664.18 -248.46,-310.48 -691.52,-375.39 -1010.39,-141.11 -333.06,245.57 -395.08,719.63 -135.47,1044.15z"/>
   </g>
  </g>
 </g>
</svg>
