<?xml version="1.0" encoding="UTF-8"?>
<!DOCTYPE svg PUBLIC "-//W3C//DTD SVG 1.1//EN" "http://www.w3.org/Graphics/SVG/1.1/DTD/svg11.dtd">
<!-- Creator: CorelDRAW 2017 -->
<svg xmlns="http://www.w3.org/2000/svg" xml:space="preserve" width="180.622mm" height="169.333mm" version="1.1" style="shape-rendering:geometricPrecision; text-rendering:geometricPrecision; image-rendering:optimizeQuality; fill-rule:evenodd; clip-rule:evenodd"
viewBox="0 0 18062.2 16933.3"
 xmlns:xlink="http://www.w3.org/1999/xlink">
 <defs>
  <style type="text/css">
   <![CDATA[
    .fil0 {fill:#000000;fill-rule:nonzero}
   ]]>
  </style>
 </defs>
 <g id="Слой_x0020_1">
  <metadata id="CorelCorpID_0Corel-Layer"/>
  <path class="fil0" d="M14322.77 5291.64c-2042.51,0 -3704.16,1899.08 -3704.16,4233.33 0,153.38 7.44,304.83 21.34,454.06l-1033.11 -619.83c7.3,-8.29 14.75,-16.27 22.05,-24.66 638.17,-727.36 989.72,-1663.16 989.72,-2635.1l0 -4053.63c0,-1458.91 -1186.93,-2645.83 -2645.83,-2645.83l-6350 0c-292.27,0 -529.16,236.89 -529.16,529.16l0 1058.34c0,1277.72 910.48,2346.78 2116.66,2592.63l0 2699.03c0,916.8 327.56,1776.16 928.37,2452.89l-2885.47 1768.16c-784.65,485.77 -1253.18,1326.8 -1253.18,2249.66l0 3054.28c0,292.28 236.89,529.17 529.17,529.17l13793.6 0c875.31,0 1587.5,-712.19 1587.5,-1587.5l0 -1988.5c1114.71,-594.22 1929.8,-1793.52 2112.96,-3221.71 1.91,-12.56 3.57,-25.08 4.66,-38.07 22.47,-187.25 34.33,-378.38 34.33,-572.55 0,-2334.25 -1677.5,-4233.33 -3739.45,-4233.33zm-7408.32 7189.07l0 0 -1587.5 -1587.49 0 -664.78c489.76,232.9 1027.75,355 1584.75,355 580.42,0 1111.92,-133.24 1590.25,-372.88l0 682.66 -1587.5 1587.49zm-2645.83 -8247.4l0 0 529.16 0c1192.96,0 2256.12,-566.91 2934.13,-1445.58 360.89,705.98 1029.79,1229.22 1828.36,1391.96l0 2519.75c0,1483.75 -1122.67,2749.47 -2502.77,2821.82 -735.33,38.28 -1432.49,-218.16 -1963.98,-722.66 -531.92,-504.75 -824.9,-1186.49 -824.9,-1919.46l0 -2645.83zm5291.65 -1587.5l0 0 0 438.22c-615.97,-218.55 -1058.32,-806.7 -1058.32,-1496.55l0 -438.22c615.97,218.54 1058.32,806.69 1058.32,1496.55zm-7408.32 -1058.76l0 0 0 -529.16 5238.47 0c-245.85,1206.36 -1314.91,2117.09 -2592.64,2117.09l-1058.33 0c-875.31,0 -1587.5,-712.44 -1587.5,-1587.93zm-1093.61 11762.8l0 0c0,-553.68 281.13,-1058.33 749.93,-1348.56l2460.35 -1507.56 0 618.74c0,140.3 55.81,274.92 155.04,374.12l1961.62 1961.79 0 839.09c0,292.27 236.89,529.16 529.17,529.16 292.28,0 529.17,-236.89 529.17,-529.16l0 -839.09 1961.61 -1961.79c99.23,-99.2 155.04,-233.82 155.04,-374.12l0 -547.09 1460.33 876.16c371.08,831.78 975.78,1505.51 1714.67,1907.75l0 1996.51c0,185.49 32.25,363.54 90.95,529.17l-2207.61 0 0 -1587.5c0,-292.28 -236.89,-529.17 -529.17,-529.17 -292.28,0 -529.17,236.89 -529.17,529.17l0 1587.5 -5291.65 0 0 -1587.5c0,-292.28 -236.89,-529.17 -529.17,-529.17 -292.28,0 -529.17,236.89 -529.17,529.17l0 1587.5 -2151.94 0 0 -2525.12zm13793.6 1995.95l0 0c0,291.75 -237.42,529.17 -529.17,529.17 -291.74,0 -529.16,-237.42 -529.16,-529.17l0 -1630.89c172.93,28.36 349.46,43.39 529.16,43.39 179.71,0 356.24,-14.75 529.17,-42.58l0 1630.08zm-529.17 -2645.83l0 0c-1187.73,0 -2144.5,-932.68 -2494.52,-2117.09l5022.25 0c-355.82,1188.29 -1327.58,2117.09 -2527.73,2117.09zm-2645.83 -3175l0 0c0,-1750.65 1186.92,-3174.99 2645.83,-3174.99 1478.35,0 2681.11,1424.34 2681.11,3174.99l-5326.94 0z"/>
 </g>
</svg>
