<?xml version="1.0" encoding="UTF-8"?>
<!DOCTYPE svg PUBLIC "-//W3C//DTD SVG 1.1//EN" "http://www.w3.org/Graphics/SVG/1.1/DTD/svg11.dtd">
<!-- Creator: CorelDRAW 2017 -->
<svg xmlns="http://www.w3.org/2000/svg" xml:space="preserve" width="87.489mm" height="93.133mm" version="1.1" style="shape-rendering:geometricPrecision; text-rendering:geometricPrecision; image-rendering:optimizeQuality; fill-rule:evenodd; clip-rule:evenodd"
viewBox="0 0 8748.9 9313.3"
 xmlns:xlink="http://www.w3.org/1999/xlink">
 <defs>
  <style type="text/css">
   <![CDATA[
    .fil0 {fill:#F06265;fill-rule:nonzero}
   ]]>
  </style>
 </defs>
 <g id="РЎР_x00bb_РѕР_x2116__x0020_1">
  <metadata id="CorelCorpID_0Corel-Layer"/>
  <g id="_2711255058736">
   <path class="fil0" d="M2099.46 2381.66c165.35,-165.24 433.39,-165.24 598.74,0 165.24,165.35 165.38,433.39 0,598.74l-1252.89 1252.92 5186.91 0c233.72,0 423.34,189.48 423.34,423.32 0,233.86 -189.62,423.34 -423.34,423.34l-5186.91 0 1252.89 1252.78c165.38,165.35 165.38,433.39 0,598.74 -82.66,82.69 -191,124.03 -299.3,124.03 -108.44,0 -216.78,-41.34 -299.44,-124.03l-1975.41 -1975.56c-82.69,-82.6 -124.04,-190.91 -124.04,-299.24 0,-108.33 41.35,-216.67 124.04,-299.34l1975.41 -1975.7zm2557.21 6931.65l0 0c-233.86,0 -423.32,-189.48 -423.32,-423.33 0,-233.86 189.46,-423.34 423.32,-423.34l3245.55 0 0 -7619.99 -3245.55 0c-233.86,0 -423.32,-189.47 -423.32,-423.33 0,-233.85 189.46,-423.33 423.32,-423.33l3668.89 0c233.85,0 423.33,189.48 423.33,423.33l0 8466.66c0,233.85 -189.48,423.33 -423.33,423.33l-3668.89 0z"/>
  </g>
 </g>
</svg>
