<?xml version="1.0" encoding="UTF-8"?>
<!DOCTYPE svg PUBLIC "-//W3C//DTD SVG 1.1//EN" "http://www.w3.org/Graphics/SVG/1.1/DTD/svg11.dtd">
<!-- Creator: CorelDRAW 2017 -->
<svg xmlns="http://www.w3.org/2000/svg" xml:space="preserve" width="101.2mm" height="23.603mm" version="1.1" style="shape-rendering:geometricPrecision; text-rendering:geometricPrecision; image-rendering:optimizeQuality; fill-rule:evenodd; clip-rule:evenodd"
viewBox="0 0 10120 2360.3"
 xmlns:xlink="http://www.w3.org/1999/xlink">
 <defs>
  <style type="text/css">
   <![CDATA[
    .str0 {stroke:#DAE500;stroke-width:176.39;stroke-linecap:round;stroke-linejoin:round;stroke-miterlimit:10}
    .fil2 {fill:none;fill-rule:nonzero}
    .fil1 {fill:#DAE500;fill-rule:nonzero}
    .fil0 {fill:#ffffff;fill-rule:nonzero}
   ]]>
  </style>
 </defs>
 <g id="Слой_x0020_1">
  <metadata id="CorelCorpID_0Corel-Layer"/>
  <path class="fil0" d="M7326.12 1485.3l220.01 -608.25 209.94 608.25 409.18 0 -487.06 -1454.85 -243.82 0 -515.52 1454.85 407.27 0zm1351.51 0l531.23 -1434.54 -467.33 0 -505.56 1434.54 441.66 0zm1388.19 136.76l0 -1571.3 -419.92 0 0 1571.3 419.92 0zm-474.1 467.33l0 0c0,149 115.14,264.14 264.14,264.14 149.01,0 264.14,-115.14 264.14,-264.14 0,-149.01 -115.13,-264.14 -264.14,-264.14 -149,0 -264.14,115.13 -264.14,264.14zm-7956.08 -1212.34l494.42 1432.46 331.87 0 836.44 -2258.75 -467.32 0 -541.83 1537.44 -521.51 -1557.76 -243.82 0 -551.99 1557.76 -504.58 -1537.44 -467.32 0 785.65 2258.75 331.87 0 518.12 -1432.46zm5212.98 608.25l-470.81 -1434.54 -467.33 0 498.97 1434.54 439.17 0z"/>
  <g id="_2907852395456">
   <path class="fil1" d="M6058.64 1382.46l-189.4 0 0 229.76 -74.52 0 0 161.45 74.52 0 0 510.75 189.4 0 0 -510.75 130.4 0 0 -161.45 -130.4 0 0 -229.76zm512.23 208.02l0 0c-80.73,0 -173.87,17.08 -253.05,94.7 -48.12,48.13 -102.46,130.41 -102.46,263.92 0,105.56 31.05,192.5 105.57,262.36 66.76,63.65 149.03,94.7 257.71,94.7 234.41,0 310.48,-159.9 330.66,-209.58l-173.87 -27.94c-31.05,54.33 -85.38,88.48 -156.79,88.48 -72.97,0 -114.89,-35.7 -135.07,-63.64 -21.73,-29.5 -32.6,-72.97 -32.6,-113.33l502.99 0 0 -15.53c0,-72.97 -9.31,-178.53 -80.73,-263.91 -46.57,-55.89 -125.74,-110.23 -262.36,-110.23zm-153.69 268.57l0 0c15.53,-90.04 88.49,-135.06 158.35,-135.06 69.86,0 144.38,43.47 159.9,135.06l-318.25 0zm1001.2 -268.57l0 0c-108.67,0 -172.32,58.99 -208.03,108.67l0 -86.93 -189.4 0 0 672.2 189.4 0 0 -343.09c0,-38.81 1.55,-86.93 29.5,-130.4 27.94,-41.92 66.75,-58.99 116.43,-58.99 18.63,0 58.99,3.1 88.49,34.15 34.15,35.71 35.71,94.7 35.71,131.96l0 366.37 189.39 0 0 -422.26c0,-65.2 -6.21,-131.96 -52.78,-189.4 -52.78,-65.2 -139.72,-82.28 -198.71,-82.28zm790.07 0l0 0c-108.67,0 -172.32,58.99 -208.03,108.67l0 -86.93 -189.39 0 0 672.2 189.39 0 0 -343.09c0,-38.81 1.56,-86.93 29.5,-130.4 27.95,-41.92 66.76,-58.99 116.44,-58.99 18.63,0 58.99,3.1 88.49,34.15 34.15,35.71 35.7,94.7 35.7,131.96l0 366.37 189.4 0 0 -422.26c0,-65.2 -6.21,-131.96 -52.78,-189.4 -52.79,-65.2 -139.72,-82.28 -198.72,-82.28zm392.66 693.94l0 0 189.39 0 0 -672.2 -189.39 0 0 672.2zm790.13 -332.22l0 0c-38.81,-52.78 -117.99,-79.17 -170.77,-96.25l-45.02 -13.97c-52.79,-17.08 -60.55,-43.47 -60.55,-60.55 0,-32.6 27.95,-54.33 72.97,-54.33 20.18,0 65.2,3.1 110.22,45.02l93.15 -110.23c-85.39,-65.2 -164.56,-71.41 -214.24,-71.41 -54.34,0 -122.65,6.21 -175.43,48.13 -38.81,32.6 -69.86,86.94 -69.86,152.14 0,54.33 20.19,96.25 51.23,128.85 40.37,41.92 96.26,63.65 144.38,80.73l43.47 15.52c24.84,9.32 58.99,26.4 58.99,68.31 0,46.57 -40.36,72.96 -93.15,72.96 -55.88,0 -111.77,-34.15 -149.03,-77.62l-99.36 114.88c41.92,45.03 121.09,111.78 260.82,111.78 82.27,0 147.48,-21.74 201.81,-71.42 54.34,-49.67 74.52,-110.22 74.52,-170.76 0,-43.47 -13.97,-83.83 -34.15,-111.78zm-4928.85 -1952.24c-711.15,0 -1205.57,494.42 -1205.57,1181.87 0,687.44 494.42,1178.47 1205.57,1178.47 711.15,0 1205.56,-491.03 1205.56,-1178.47 0,-687.45 -494.41,-1181.87 -1205.56,-1181.87zm0 1960.74l0 0c-440.24,0 -751.79,-321.7 -751.79,-778.87 0,-457.17 311.55,-782.27 751.79,-782.27 440.23,0 751.79,325.1 751.79,782.27 0,457.17 -311.56,778.87 -751.79,778.87z"/>
   <path class="fil2 str0" d="M3724.45 1437.68c0,0 321.04,68.8 435.69,-298.1 114.66,-366.9 85.56,-747.89 403.06,-818.45"/>
   <path class="fil2 str0" d="M4504.11 1988.03c0,0 114.66,-435.69 756.73,-733.8"/>
  </g>
 </g>
</svg>
