<?xml version="1.0" encoding="UTF-8"?>
<!DOCTYPE svg PUBLIC "-//W3C//DTD SVG 1.1//EN" "http://www.w3.org/Graphics/SVG/1.1/DTD/svg11.dtd">
<!-- Creator: CorelDRAW 2017 -->
<svg xmlns="http://www.w3.org/2000/svg" xml:space="preserve" width="44.803mm" height="44.803mm" version="1.1" style="shape-rendering:geometricPrecision; text-rendering:geometricPrecision; image-rendering:optimizeQuality; fill-rule:evenodd; clip-rule:evenodd"
viewBox="0 0 4480.3 4480.3"
 xmlns:xlink="http://www.w3.org/1999/xlink">
 <defs>
  <style type="text/css">
   <![CDATA[
    .fil0 {fill:#F8F8F8}
    .fil1 {fill:black;fill-rule:nonzero}
   ]]>
  </style>
 </defs>
 <g id="Слой_x0020_1">
  <metadata id="CorelCorpID_0Corel-Layer"/>
  <rect class="fil0" x="-0" width="4480.3" height="4480.3"/>
  <path class="fil1" d="M2905.49 1832.23c-241.65,0 -438.23,224.68 -438.23,500.84 0,18.15 0.88,36.06 2.52,53.72l-122.22 -73.33c0.86,-0.98 1.74,-1.93 2.6,-2.92 75.51,-86.05 117.1,-196.77 117.1,-311.76l0 -479.58c0,-172.6 -140.43,-313.02 -313.03,-313.02l-751.26 0c-34.58,0 -62.6,28.02 -62.6,62.6l0 125.21c0,151.17 107.71,277.65 250.41,306.74l0 319.31c0,108.47 38.76,210.14 109.84,290.2l-341.38 209.19c-92.83,57.47 -148.26,156.97 -148.26,266.16l0 361.35c0,34.58 28.03,62.6 62.61,62.6l1631.9 0c103.56,0 187.82,-84.26 187.82,-187.81l0 -235.26c131.88,-70.3 228.31,-212.19 249.98,-381.16 0.23,-1.48 0.42,-2.97 0.55,-4.5 2.66,-22.16 4.06,-44.77 4.06,-67.74 0,-276.16 -198.46,-500.84 -442.41,-500.84zm-876.47 850.53l0 0 -187.81 -187.81 0 -78.65c57.94,27.55 121.59,42 187.49,42 68.66,0 131.55,-15.77 188.14,-44.12l0 80.77 -187.82 187.81zm-313.02 -975.74l0 0 62.6 0c141.14,0 266.92,-67.07 347.13,-171.03 42.7,83.53 121.84,145.43 216.32,164.69l0 298.1c0,175.55 -132.83,325.29 -296.1,333.85 -87,4.53 -169.48,-25.81 -232.36,-85.5 -62.93,-59.71 -97.59,-140.37 -97.59,-227.09l0 -313.02zm626.05 -187.82l0 0 0 51.85c-72.88,-25.86 -125.21,-95.44 -125.21,-177.06l0 -51.84c72.87,25.85 125.21,95.44 125.21,177.05zm-876.48 -125.26l0 0 0 -62.6 619.76 0c-29.08,142.72 -155.56,250.47 -306.73,250.47l-125.21 0c-103.56,0 -187.82,-84.29 -187.82,-187.87zm-129.38 1391.65l0 0c0,-65.51 33.26,-125.21 88.72,-159.55l291.09 -178.36 0 73.21c0,16.59 6.6,32.52 18.34,44.26l232.08 232.09 0 99.28c0,34.57 28.02,62.6 62.6,62.6 34.58,0 62.61,-28.03 62.61,-62.6l0 -99.28 232.07 -232.09c11.74,-11.74 18.35,-27.67 18.35,-44.26l0 -64.73 172.77 103.66c43.9,98.4 115.44,178.11 202.86,225.7l0 236.21c0,21.94 3.81,43.01 10.76,62.6l-261.18 0 0 -187.81c0,-34.58 -28.03,-62.61 -62.61,-62.61 -34.58,0 -62.6,28.03 -62.6,62.61l0 187.81 -626.05 0 0 -187.81c0,-34.58 -28.03,-62.61 -62.61,-62.61 -34.58,0 -62.61,28.03 -62.61,62.61l0 187.81 -254.59 0 0 -298.74zm1631.91 236.14l0 0c0,34.51 -28.09,62.6 -62.61,62.6 -34.51,0 -62.6,-28.09 -62.6,-62.6l0 -192.95c20.46,3.35 41.34,5.13 62.6,5.13 21.26,0 42.15,-1.74 62.61,-5.04l0 192.86zm-62.61 -313.03l0 0c-140.52,0 -253.71,-110.34 -295.12,-250.47l594.17 0c-42.09,140.59 -157.06,250.47 -299.05,250.47zm-313.02 -375.63l0 0c0,-207.12 140.42,-375.63 313.02,-375.63 174.9,0 317.2,168.51 317.2,375.63l-630.22 0zm313.02 -500.84c-241.65,0 -438.23,224.68 -438.23,500.84 0,18.15 0.88,36.06 2.52,53.72l-122.22 -73.33c0.86,-0.98 1.74,-1.93 2.6,-2.92 75.51,-86.05 117.1,-196.77 117.1,-311.76l0 -479.58c0,-172.6 -140.43,-313.02 -313.03,-313.02l-751.26 0c-34.58,0 -62.6,28.02 -62.6,62.6l0 125.21c0,151.17 107.71,277.65 250.41,306.74l0 319.31c0,108.47 38.76,210.14 109.84,290.2l-341.38 209.19c-92.83,57.47 -148.26,156.97 -148.26,266.16l0 361.35c0,34.58 28.03,62.6 62.61,62.6l1631.9 0c103.56,0 187.82,-84.26 187.82,-187.81l0 -235.26c131.88,-70.3 228.31,-212.19 249.98,-381.16 0.23,-1.48 0.42,-2.97 0.55,-4.5 2.66,-22.16 4.06,-44.77 4.06,-67.74 0,-276.16 -198.46,-500.84 -442.41,-500.84zm-876.47 850.53l0 0 -187.81 -187.81 0 -78.65c57.94,27.55 121.59,42 187.49,42 68.66,0 131.55,-15.77 188.14,-44.12l0 80.77 -187.82 187.81zm-313.02 -975.74l0 0 62.6 0c141.14,0 266.92,-67.07 347.13,-171.03 42.7,83.53 121.84,145.43 216.32,164.69l0 298.1c0,175.55 -132.83,325.29 -296.1,333.85 -87,4.53 -169.48,-25.81 -232.36,-85.5 -62.93,-59.71 -97.59,-140.37 -97.59,-227.09l0 -313.02zm626.05 -187.82l0 0 0 51.85c-72.88,-25.86 -125.21,-95.44 -125.21,-177.06l0 -51.84c72.87,25.85 125.21,95.44 125.21,177.05zm-876.48 -125.26l0 0 0 -62.6 619.76 0c-29.08,142.72 -155.56,250.47 -306.73,250.47l-125.21 0c-103.56,0 -187.82,-84.29 -187.82,-187.87zm-129.38 1391.65l0 0c0,-65.51 33.26,-125.21 88.72,-159.55l291.09 -178.36 0 73.21c0,16.59 6.6,32.52 18.34,44.26l232.08 232.09 0 99.28c0,34.57 28.02,62.6 62.6,62.6 34.58,0 62.61,-28.03 62.61,-62.6l0 -99.28 232.07 -232.09c11.74,-11.74 18.35,-27.67 18.35,-44.26l0 -64.73 172.77 103.66c43.9,98.4 115.44,178.11 202.86,225.7l0 236.21c0,21.94 3.81,43.01 10.76,62.6l-261.18 0 0 -187.81c0,-34.58 -28.03,-62.61 -62.61,-62.61 -34.58,0 -62.6,28.03 -62.6,62.61l0 187.81 -626.05 0 0 -187.81c0,-34.58 -28.03,-62.61 -62.61,-62.61 -34.58,0 -62.61,28.03 -62.61,62.61l0 187.81 -254.59 0 0 -298.74zm1631.91 236.14l0 0c0,34.51 -28.09,62.6 -62.61,62.6 -34.51,0 -62.6,-28.09 -62.6,-62.6l0 -192.95c20.46,3.35 41.34,5.13 62.6,5.13 21.26,0 42.15,-1.74 62.61,-5.04l0 192.86zm-62.61 -313.03l0 0c-140.52,0 -253.71,-110.34 -295.12,-250.47l594.17 0c-42.09,140.59 -157.06,250.47 -299.05,250.47zm-313.02 -375.63l0 0c0,-207.12 140.42,-375.63 313.02,-375.63 174.9,0 317.2,168.51 317.2,375.63l-630.22 0z"/>
 </g>
</svg>
